<?xml version="1.0" encoding="utf-8"?>
<!-- Generator: Adobe Illustrator 23.0.3, SVG Export Plug-In . SVG Version: 6.00 Build 0)  -->
<svg version="1.1" id="OBJECTS" xmlns="http://www.w3.org/2000/svg" xmlns:xlink="http://www.w3.org/1999/xlink" x="0px" y="0px"
	 viewBox="100 0 1400 500" style="enable-background:new 0 0 1500 500;" xml:space="preserve">
<style type="text/css">
	.st0{fill:#3698CE;}
	.st1{fill:#2DB5EA;}
</style>
<g>
	<rect x="137.95" y="303.47" class="st0" width="54" height="54"/>
	<circle class="st1" cx="251.94" cy="212.72" r="27.75"/>
	<path class="st1" d="M255.49,93.48h-0.02c-64.47,0-117.22,52.75-117.22,117.22v56.78h53.3v-49.99v-6.79
		c0-35.05,28.87-63.91,63.91-63.91h0.02c35.03,0,63.89,28.85,63.89,63.89c0,35.06-28.88,63.94-63.94,63.94h-7.49v53.3h7.49
		c64.48,0,117.24-52.76,117.24-117.24v0C372.68,146.21,319.94,93.48,255.49,93.48z"/>
</g>
<g>
	<path class="st1" d="M558.92,192c0,27.45-20.27,42.75-47.17,42.75h-28.19v49.75h-18.79V149.07h46.98
		C538.47,149.07,558.92,164.18,558.92,192z M483.56,165.65v52.51h26.53c18.06,0,29.67-9.03,29.67-26.16s-11.79-26.35-29.67-26.35
		H483.56z"/>
	<path class="st1" d="M662.47,166.39h-65.04v41.09h57.12v16.77h-57.12v42.93h66.52v17.32h-85.31V149.07h83.84V166.39z"/>
	<path class="st1" d="M763.07,284.5l-31.69-51.41h-0.37h-26.16v51.41h-18.79V149.07h44.96c26.9,0,47.72,14.92,47.72,42.01
		c0,19.72-10.87,32.98-27.45,38.69l33.9,54.72H763.07z M704.85,216.5h24.51c18.43,0,30.4-8.66,30.4-25.43
		c0-16.58-12.16-25.43-30.4-25.43h-24.51V216.5z"/>
	<path class="st1" d="M886.71,166.39h-65.04v41.09h57.12v16.77h-57.12v42.93h66.52v17.32h-85.31V149.07h83.84V166.39z"/>
	<path class="st1" d="M995.97,239.91v-90.84h18.79v137.82h-0.74l-84.57-93.42v91.02h-18.79V146.67h0.74L995.97,239.91z"/>
	<path class="st1" d="M1130.29,239.91v-90.84h18.79v137.82h-0.74l-84.57-93.42v91.02h-18.79V146.67h0.74L1130.29,239.91z"/>
	<path class="st1" d="M1198.1,284.5h-18.79V149.07h18.79V284.5z"/>
	<path class="st1" d="M1329.29,165.83h-47.54V284.5h-18.79V165.83h-47.35v-16.77h113.69V165.83z"/>
	<path class="st1" d="M1401.88,227.19v57.3h-18.79v-56.94l-50.12-78.31h21.93l37.59,59.33l37.4-59.33H1452L1401.88,227.19z"/>
</g>
</svg>
